<?xml version="1.0" standalone="no"?>
<!DOCTYPE svg PUBLIC "-//W3C//DTD SVG 20010904//EN"
 "http://www.w3.org/TR/2001/REC-SVG-20010904/DTD/svg10.dtd">
<svg version="1.0" xmlns="http://www.w3.org/2000/svg"
 width="312.000000pt" height="312.000000pt" viewBox="0 0 312.000000 312.000000"
 preserveAspectRatio="xMidYMid meet">
<metadata>
Created by potrace 1.16, written by Peter Selinger 2001-2019
</metadata>
<g transform="translate(0.000000,312.000000) scale(0.100000,-0.100000)"
fill="#000000" stroke="none">
<path d="M1280 2284 c-146 -63 -268 -118 -272 -122 -4 -4 118 -73 270 -153
l276 -147 293 146 c161 81 289 150 285 154 -9 9 -569 238 -579 237 -5 0 -127
-52 -273 -115z"/>
<path d="M1070 1305 c0 -522 0 -535 20 -555 28 -28 112 -28 140 0 19 19 20 33
20 270 l0 250 303 -2 302 -3 3 -255 c2 -225 4 -256 19 -267 24 -18 104 -16
131 3 l22 15 0 540 c0 296 -2 539 -5 539 -3 0 -41 -18 -85 -40 l-80 -40 -2
-162 -3 -163 -302 -3 -303 -2 -2 161 -3 161 -80 44 c-44 24 -83 44 -87 44 -5
0 -8 -241 -8 -535z"/>
</g>
</svg>
